# xmcd
#
# Track frame offsets:
#	150
#	20677
#	35546
#	51026
#	62917
#	78685
#	92504
#	107553
#	123666
#	138521
#	149887
#	163312
#	177581
#	191364
#	206264
#	217941
#	232735
#	246225
#	259709
#	275891
#	292080
#	307023
#	312333
#
# Disc length: 4538 seconds
#
# Revision: 0
# Processed by: cddbd v1.5.2PL0 Copyright (c) Steve Scherf et al.
# Submitted via: dBpowerAMP V4.0
#
DISCID=6711b817
DTITLE=Fyle - Barretos 2007
DYEAR=2007
DGENRE=Country
TTITLE0=Tomo Cerveja Gelada
TTITLE1=Meu Som eh Pionner
TTITLE2=Bole Bole do Fyle
TTITLE3=Xonadao no Barretao
TTITLE4=Para Tudo
TTITLE5=Danca do Siri
TTITLE6=Funk Rodeio
TTITLE7=Quem Bebe Vive Menos
TTITLE8=Paixao Malvada
TTITLE9=Companheiro eh Companheiro
TTITLE10=Do de Mim
TTITLE11=Batendo Acelerado Coracao
TTITLE12=Bate Forte Coracao
TTITLE13=Cabare
TTITLE14=Beija Beija virando por Cerveja
TTITLE15=Paixao Mineira
TTITLE16=Pode Chorar
TTITLE17=Vai Locutor
TTITLE18=Adeus pra nunca mais
TTITLE19=Pare Preste Atencao
TTITLE20=Amor Sem Fim
TTITLE21=Vinheta
TTITLE22=Pagode em Brasilia
EXTD=Gustavao no Barretao 2007 - vai rasgano q eu vou costurando
EXTT0=
EXTT1=
EXTT2=
EXTT3=
EXTT4=
EXTT5=
EXTT6=
EXTT7=
EXTT8=
EXTT9=
EXTT10=
EXTT11=
EXTT12=
EXTT13=
EXTT14=
EXTT15=
EXTT16=
EXTT17=
EXTT18=
EXTT19=
EXTT20=
EXTT21=
EXTT22=
PLAYORDER=
